<?xml version="1.0" encoding="utf-8"?>
<!-- Generator: Adobe Illustrator 23.0.3, SVG Export Plug-In . SVG Version: 6.00 Build 0)  -->
<svg version="1.1" id="Layer_1" xmlns="http://www.w3.org/2000/svg" xmlns:xlink="http://www.w3.org/1999/xlink" x="0px" y="0px"
	 viewBox="0 0 128.5 25.7" style="enable-background:new 0 0 128.5 25.7;" xml:space="preserve">
<style type="text/css">
	.st0{enable-background:new    ;}
	.st1{fill:#3D3D3D;}
</style>
<title>slogan</title>
<g class="st0">
	<path class="st1" d="M2.7,14.6c0.1-0.1,0.3-0.2,0.6-0.4s0.6-0.4,1.1-0.6C4.6,13,4.9,12.5,5.2,12s0.6-1,0.9-1.5s0.6-1,0.9-1.4
		c0.3-0.5,0.5-0.9,0.8-1.3C7.2,8.5,6.7,9.3,6.1,9.9c-0.2,0.3-0.5,0.5-0.8,0.8c-0.3,0.3-0.6,0.5-0.8,0.7c-0.3,0.2-0.6,0.4-0.9,0.5
		C3.3,12,3,12.1,2.7,12.1c-0.4,0-0.7,0-0.9-0.1c-0.2-0.1-0.4-0.3-0.6-0.5c-0.1-0.2-0.3-0.4-0.3-0.6c-0.1-0.2-0.1-0.4-0.1-0.5
		c0-0.1,0-0.3,0-0.3c0-0.1,0.1-0.1,0.1-0.2c0.1,0,0.1-0.1,0.2,0c0.1,0,0.1,0,0.2,0.1c0,0,0.1,0,0.1,0.1c0,0,0.1,0,0.2,0
		c0.1,0,0.2,0,0.4,0c0.1,0,0.3,0,0.5,0c0.2,0,0.4-0.1,0.7-0.2C3.4,9.7,3.7,9.5,4,9.3c0.3-0.2,0.7-0.5,1-0.7c0.4-0.3,0.7-0.5,1-0.8
		c0.3-0.3,0.7-0.6,1-0.8c0.3-0.3,0.6-0.5,0.8-0.7C8.2,6,8.4,5.8,8.6,5.7s0.3-0.2,0.3-0.2c0.1,0,0.2,0,0.4,0.1
		c0.2,0.1,0.4,0.2,0.6,0.3C10,6,10.2,6.1,10.3,6.2c0.1,0.1,0.1,0.3,0,0.5c0,0-0.1,0.2-0.3,0.5S9.6,7.9,9.3,8.5s-0.6,1.1-1,1.8
		C8,11,7.6,11.7,7.2,12.5c0.5-0.1,0.9-0.2,1.4-0.3c0.5-0.1,0.9-0.1,1.3,0c0.3-0.8,0.7-1.6,1.1-2.4s0.8-1.5,1.2-2.1s0.9-1.1,1.3-1.5
		s0.9-0.6,1.3-0.6c0.2,0,0.4,0,0.6,0.1c0.2,0,0.3,0.1,0.4,0.2C16,5.8,16.1,5.9,16.1,6s0.1,0.2,0.1,0.3c0.1,0.1,0,0.2-0.1,0.3
		C16.1,6.8,16,6.9,15.9,7c-0.2,0.1-0.4,0.4-0.7,0.7s-0.6,0.7-0.9,1.1c-0.3,0.4-0.6,0.9-1,1.5c-0.3,0.5-0.6,1.1-1,1.7
		c-0.3,0.6-0.6,1.2-0.9,1.9c-0.3,0.7-0.5,1.3-0.7,2c-0.2,0.7-0.3,1.3-0.4,2c-0.1,0.7-0.1,1.3,0,1.9c0,0.1,0,0.1,0,0.2s0,0.2-0.1,0.2
		c-0.1,0.1-0.1,0.1-0.2,0.2c-0.1,0-0.2,0.1-0.4,0c-0.2,0-0.5-0.1-0.7-0.3c-0.2-0.2-0.4-0.4-0.5-0.7c-0.1-0.3-0.2-0.6-0.2-1
		c0-0.4,0-0.7,0.1-1.1c0.1-0.5,0.2-1.1,0.3-1.7c0.2-0.7,0.4-1.4,0.7-2.2c-0.3,0.1-0.6,0.1-1,0.2S7.8,13.8,7.4,14
		c-0.4,0.1-0.8,0.3-1.2,0.5c-0.4,0.2-0.8,0.4-1.2,0.6c0.2,0,0.5-0.1,0.6-0.1c0.2,0,0.3-0.1,0.4-0.1s0.2,0,0.2,0c0,0,0,0.1,0,0.1
		c-0.4,0.9-0.6,1.7-0.8,2.5C5.1,18.2,5,19,5,19.6C5,19.8,5,19.9,4.8,20C4.7,20,4.6,20,4.4,20c-0.1,0-0.2,0-0.4-0.1
		c-0.1-0.1-0.3-0.2-0.4-0.4s-0.3-0.4-0.4-0.7c-0.1-0.3-0.1-0.7-0.1-1.1c0-0.3,0.1-0.6,0.1-0.9s0.1-0.6,0.2-0.9
		c-0.1,0.1-0.2,0.1-0.3,0.2C3.1,16.2,3,16.2,3,16.3c0,0-0.1,0.1-0.1,0.1s-0.1,0.1-0.2,0.1s-0.1,0.1-0.2,0c-0.1,0-0.1,0-0.1-0.1
		c-0.1-0.3-0.1-0.6-0.1-0.8c0-0.2,0.1-0.4,0.1-0.6c0.1-0.1,0.1-0.3,0.2-0.3S2.7,14.6,2.7,14.6z"/>
	<path class="st1" d="M15.8,16.1c-0.1,0-0.2,0-0.4,0c-0.1,0-0.3,0-0.5,0c-0.2,0-0.3,0-0.5,0.1c-0.1,0-0.3,0-0.4,0
		c0.1,0,0.3,0,0.3,0.1s0.1,0.1,0.2,0.1c-0.5,0.6-0.8,0.9-1.1,0.9c-0.2,0-0.3,0-0.4-0.1C13,17.1,13,17,13,16.9s0-0.2,0-0.3
		c0-0.1,0.1-0.2,0.1-0.3v0c-0.1,0.1-0.2,0.2-0.2,0.3s0,0.2,0,0.3c0,0.1,0,0.2,0,0.2s0,0.1,0.1,0.1c0,0.1,0,0.1,0,0.1
		c0,0,0,0.1,0,0.1c0,0,0,0.1,0,0.1c0,0.1,0,0.1,0.1,0.2c0,0,0.1,0.1,0.1,0.1c0.1,0,0.2,0.1,0.3,0.1c0.1,0,0.2,0,0.4-0.1
		c0.2-0.1,0.4-0.2,0.6-0.4c0.2-0.2,0.4-0.3,0.6-0.5c0.2-0.2,0.4-0.4,0.6-0.6s0.4-0.4,0.5-0.6c0.1-0.2,0.2-0.4,0.3-0.5
		c0.1-0.1,0.1-0.2,0.2-0.2s0.2,0,0.2,0.1c0.1,0.1,0.1,0.2,0.1,0.3s0,0.3-0.1,0.5c0,0.1-0.1,0.2-0.2,0.4c-0.1,0.2-0.2,0.4-0.4,0.6
		s-0.4,0.5-0.6,0.7s-0.5,0.5-0.7,0.7c-0.3,0.2-0.6,0.4-0.9,0.6s-0.6,0.3-0.9,0.3c-0.1,0-0.2,0-0.3,0c-0.1,0-0.3-0.1-0.4-0.2
		c-0.1-0.1-0.3-0.2-0.5-0.4c-0.2-0.2-0.3-0.4-0.5-0.7c-0.1-0.2-0.1-0.4-0.1-0.8s0.1-0.8,0.2-1.2c0.1-0.5,0.3-0.9,0.5-1.4
		c0.2-0.5,0.5-0.9,0.8-1.2s0.6-0.6,1-0.8c0.4-0.2,0.8-0.2,1.2-0.1c0.3,0.1,0.5,0.2,0.6,0.3c0.1,0.1,0.2,0.3,0.3,0.4
		c0,0.2,0.1,0.3,0,0.5c0,0.2,0,0.3,0,0.4c0,0.3-0.1,0.5-0.2,0.8c-0.1,0.3-0.2,0.5-0.4,0.8c0.1,0,0.2,0.1,0.3,0.1
		c0.1,0,0.1,0.1,0.1,0.2c0,0.1,0.1,0.1,0.1,0.2s0,0.1,0,0.2C15.9,16.1,15.8,16.1,15.8,16.1z M13.4,15.8c0.1-0.1,0.3-0.2,0.5-0.3
		c0.2-0.1,0.4-0.1,0.6-0.2c0.1-0.2,0.2-0.4,0.3-0.7c0.1-0.2,0.2-0.5,0.3-0.7c0.1-0.2,0.1-0.4,0.1-0.5c0-0.1,0-0.2-0.1-0.2
		c-0.1,0-0.2,0.1-0.4,0.2c-0.1,0.1-0.3,0.3-0.4,0.6c-0.1,0.2-0.3,0.5-0.4,0.8S13.5,15.5,13.4,15.8z M13.7,16.5
		C13.7,16.5,13.8,16.4,13.7,16.5c0.1-0.1,0.1-0.1,0.1-0.2c-0.1,0-0.1,0-0.1,0C13.7,16.4,13.7,16.4,13.7,16.5
		C13.7,16.4,13.7,16.5,13.7,16.5z"/>
	<path class="st1" d="M18,14.8c-0.1,0.1-0.1,0.3-0.2,0.4c-0.1,0.1-0.1,0.3-0.1,0.4c0.1-0.2,0.2-0.4,0.4-0.7s0.3-0.5,0.4-0.8
		c0.2-0.3,0.3-0.5,0.5-0.8c0.2-0.3,0.3-0.5,0.4-0.7s0.3-0.4,0.4-0.5c0.1-0.1,0.2-0.2,0.3-0.2c0,0,0.1,0,0.3,0.1s0.3,0.1,0.4,0.2
		c0.1,0.1,0.2,0.1,0.3,0.2c0.1,0.1,0.1,0.2,0,0.3c0,0-0.1,0.1-0.2,0.3s-0.2,0.3-0.3,0.5c-0.1,0.2-0.2,0.4-0.3,0.6
		c-0.1,0.2-0.1,0.4-0.2,0.7c0,0.2,0,0.4,0,0.6c0,0.2,0.1,0.3,0.2,0.4c0,0,0,0.1,0,0.1c0,0-0.1,0.1-0.1,0.1c-0.1,0-0.1,0.1-0.2,0.2
		c-0.1,0.1-0.2,0.1-0.3,0.1c-0.2,0.1-0.3,0.1-0.5,0.2c-0.1,0-0.2,0-0.3,0c-0.2-0.2-0.3-0.3-0.3-0.6c0-0.2,0-0.4,0-0.7
		c0-0.2,0.1-0.4,0.2-0.6c0.1-0.2,0.1-0.3,0.2-0.3c-0.1,0.1-0.3,0.3-0.5,0.5c-0.2,0.2-0.3,0.4-0.5,0.7c-0.2,0.2-0.3,0.5-0.5,0.8
		s-0.3,0.6-0.3,0.9c-0.1,0.5-0.1,0.9-0.1,1.2c0,0.3,0,0.5,0,0.5c0,0-0.1,0.1-0.2,0.1c-0.1,0-0.2,0-0.3,0c-0.1,0-0.2-0.1-0.3-0.1
		c-0.1,0-0.2-0.1-0.3-0.2c-0.1-0.1-0.1-0.3-0.2-0.6C16,18,16,17.7,16,17.3c0-0.4,0-0.8,0.1-1.3c0.1-0.5,0.2-0.9,0.3-1.4
		c0.2-0.4,0.3-0.9,0.4-1.3c0.1-0.4,0.2-0.9,0.2-1.3c0-0.1,0-0.2,0.1-0.2s0.1,0,0.2,0c0,0,0.1,0,0.2,0.1c0.1,0,0.3,0.1,0.4,0.2
		c0.1,0.1,0.3,0.2,0.4,0.4s0.2,0.3,0.2,0.6c0,0.2,0,0.4-0.1,0.6C18.3,14,18.2,14.4,18,14.8z"/>
	<path class="st1" d="M29.6,5.8c0.2-0.1,0.6-0.1,1-0.1c0.4,0,0.8-0.1,1.3-0.1c0.5,0,1,0,1.4,0s0.9,0,1.4,0c0.4,0,0.8,0,1.1,0.1
		s0.5,0,0.5,0.1c0.2,0.1,0.4,0.2,0.4,0.4s0.1,0.5,0,0.9c-0.1,0.3-0.3,0.7-0.7,1.1c-0.4,0.4-0.8,0.9-1.3,1.3c-0.5,0.5-1.1,1-1.8,1.5
		c-0.6,0.5-1.3,1-2,1.5c-0.7,0.5-1.3,1-1.9,1.6c-0.6,0.5-1.1,1-1.6,1.5c-0.5,0.5-0.8,1-1.1,1.4c-0.3,0.4-0.4,0.9-0.3,1.2
		c0,0.2,0.1,0.3,0.2,0.4c0.1,0.1,0.2,0.2,0.4,0.3S27,19,27.2,19s0.4,0,0.6,0s0.4-0.1,0.7-0.2c0.3-0.1,0.5-0.3,0.8-0.4
		c0.2-0.2,0.5-0.4,0.7-0.6c0.2-0.2,0.4-0.5,0.5-0.8c0.1-0.3,0.2-0.5,0.2-0.8c0-0.3-0.1-0.5-0.2-0.8c0,0-0.1-0.1-0.1-0.1
		c0,0-0.1-0.1-0.1-0.1c0,0,0-0.1,0-0.1c0,0,0-0.1,0.1-0.2c0.1-0.2,0.3-0.3,0.5-0.4c0.2-0.1,0.4-0.1,0.6-0.2c0.2,0,0.4,0,0.6,0
		c0.2,0,0.3,0,0.4,0.1c0.1,0,0.2,0.1,0.3,0.2c0.1,0.1,0.2,0.2,0.2,0.4c0.1,0.2,0.1,0.3,0.1,0.5s0,0.4,0,0.6
		c-0.1,0.5-0.2,0.9-0.4,1.3c-0.2,0.4-0.5,0.7-0.8,1.1c-0.3,0.3-0.7,0.6-1.1,0.8c-0.4,0.2-0.8,0.4-1.2,0.5c-0.4,0.1-0.8,0.3-1.2,0.3
		s-0.7,0.1-1,0.1c-0.6,0-1.1-0.1-1.5-0.3c-0.4-0.2-0.7-0.5-1-0.8c-0.3-0.3-0.4-0.6-0.6-1s-0.2-0.7-0.1-1c0-0.5,0.2-1.1,0.5-1.7
		c0.3-0.6,0.8-1.1,1.3-1.7s1.1-1.1,1.8-1.6s1.3-1.1,2-1.6c0.7-0.5,1.3-1,1.9-1.5c0.6-0.5,1.1-0.9,1.6-1.4c0.1-0.1,0.3-0.3,0.5-0.4
		c0.2-0.1,0.4-0.2,0.6-0.2C34.6,7.1,34.8,7.1,35,7c-0.2,0-0.5,0-0.8,0c-0.3,0-0.6,0-1,0c-0.4,0-0.9,0-1.4,0.1c-0.6,0-1,0.2-1.4,0.4
		c-0.4,0.2-0.7,0.4-0.9,0.7c-0.2,0.2-0.4,0.5-0.4,0.7C29,9.1,29,9.3,29,9.4c0,0.1,0,0.2,0,0.2c0,0.1-0.1,0.1-0.2,0.1s-0.2,0-0.3-0.1
		c-0.1-0.1-0.2-0.2-0.3-0.4C28.1,8.9,28,8.6,28,8.3c0-0.4,0.1-0.7,0.2-1c0.1-0.3,0.3-0.6,0.5-0.9C29,6,29.3,5.9,29.6,5.8z"/>
	<path class="st1" d="M37.1,12.4c0,0,0.1-0.1,0.1-0.1s0.2,0,0.3,0s0.3,0.1,0.4,0.2s0.3,0.2,0.4,0.3c0.1,0.1,0.2,0.2,0.2,0.3
		c0,0.1,0,0.3-0.1,0.4C38.2,14,38,14.5,37.8,15c-0.2,0.5-0.4,1-0.5,1.4c-0.1,0.4-0.2,0.7-0.3,1c-0.1,0.3-0.1,0.4,0,0.4
		c0.1,0,0.2-0.1,0.3-0.2s0.2-0.3,0.4-0.5c0.1-0.2,0.3-0.4,0.4-0.6c0.1-0.2,0.3-0.4,0.4-0.6c0.1-0.2,0.2-0.3,0.3-0.5
		c0.1-0.1,0.1-0.2,0.2-0.2c0,0,0.1,0,0.1,0s0.1,0,0.2,0.1c0.1,0,0.1,0.1,0.1,0.2c0,0.1,0,0.2,0,0.3c0,0.1-0.1,0.2-0.2,0.4
		c-0.1,0.2-0.2,0.5-0.4,0.8c-0.2,0.3-0.3,0.6-0.5,0.9c-0.2,0.3-0.4,0.6-0.6,0.8c-0.2,0.2-0.4,0.4-0.7,0.5c-0.2,0.1-0.5,0.1-0.7,0
		c-0.1,0-0.2-0.1-0.3-0.2c-0.1-0.1-0.1-0.2-0.2-0.3s-0.1-0.2-0.1-0.3s0-0.2,0-0.2c0-0.1,0-0.3,0-0.5c-0.2,0.5-0.5,0.9-0.8,1.2
		c-0.3,0.3-0.5,0.4-0.8,0.3c-0.3-0.1-0.5-0.2-0.6-0.3c-0.1-0.1-0.2-0.3-0.3-0.4c-0.1-0.2-0.1-0.3-0.1-0.5c0-0.2,0-0.3,0-0.5
		c0-0.3,0.1-0.7,0.1-1.1c0.1-0.4,0.2-0.8,0.3-1.2c0.1-0.4,0.3-0.8,0.5-1.2c0.2-0.4,0.4-0.7,0.6-0.9c0.2-0.3,0.5-0.4,0.8-0.5
		c0.3-0.1,0.6-0.1,0.9,0c0.2,0.1,0.3,0.2,0.4,0.3c0.1,0.1,0.1,0.3,0.1,0.5L37.1,12.4z M36.4,13.4c-0.1,0-0.2,0.1-0.4,0.3
		c-0.1,0.2-0.3,0.5-0.4,0.8c-0.1,0.3-0.3,0.6-0.4,1c-0.1,0.4-0.2,0.7-0.3,1c-0.1,0.3-0.1,0.6-0.1,0.7c0,0.2,0.1,0.3,0.2,0.2
		c0.2,0,0.3-0.2,0.5-0.4c0.1-0.2,0.3-0.5,0.4-0.7c0.1-0.3,0.3-0.6,0.4-0.9c0.1-0.3,0.2-0.6,0.2-0.9s0.1-0.5,0.1-0.7
		C36.6,13.5,36.5,13.4,36.4,13.4z"/>
	<path class="st1" d="M39.4,12.1c0-0.1,0-0.2,0.1-0.2s0.1,0,0.2,0c0,0,0.1,0,0.2,0.1c0.1,0,0.2,0.1,0.4,0.2c0.1,0.1,0.2,0.2,0.3,0.4
		c0.1,0.1,0.1,0.3,0.1,0.5c0,0.2-0.1,0.4-0.1,0.7c-0.1,0.3-0.2,0.6-0.3,0.9c0.2-0.3,0.3-0.5,0.5-0.8c0.2-0.3,0.4-0.6,0.6-0.8
		s0.4-0.5,0.5-0.6c0.2-0.2,0.3-0.3,0.4-0.3c0.2,0,0.3,0,0.4,0.1c0.1,0.1,0.3,0.2,0.4,0.3c0.1,0.1,0.2,0.3,0.2,0.4c0,0.1,0,0.3,0,0.3
		c-0.1,0.2-0.3,0.5-0.4,0.9c-0.2,0.4-0.4,0.8-0.5,1.3c0.2-0.3,0.4-0.7,0.6-1.1s0.5-0.7,0.7-1.1c0.2-0.3,0.4-0.6,0.6-0.9
		c0.2-0.2,0.3-0.4,0.4-0.4c0.2,0,0.3,0,0.4,0.1s0.3,0.2,0.4,0.3c0.1,0.1,0.2,0.3,0.2,0.4c0,0.1,0,0.2,0,0.3
		c-0.1,0.1-0.2,0.4-0.4,0.7c-0.1,0.3-0.3,0.6-0.5,1s-0.3,0.8-0.5,1.3c-0.1,0.5-0.3,0.9-0.4,1.4c-0.1,0.5-0.1,1-0.2,1.5
		s0,0.9,0.1,1.4c0,0.1,0,0.1,0,0.2c0,0.1-0.1,0.1-0.3,0.1c-0.1,0-0.2,0-0.3-0.1c-0.1,0-0.3-0.1-0.4-0.2c-0.1-0.1-0.2-0.3-0.4-0.5
		c-0.1-0.2-0.2-0.5-0.2-0.8c0-0.2,0-0.4,0-0.8c0-0.4,0.1-0.8,0.2-1.2c0.1-0.4,0.2-0.9,0.3-1.4c0.1-0.5,0.3-0.9,0.5-1.3
		c0-0.1,0.1-0.1,0.1-0.2c0-0.1,0-0.1,0-0.1c0,0-0.1,0-0.2,0.2c-0.1,0.1-0.2,0.3-0.3,0.6c-0.1,0.2-0.3,0.5-0.4,0.8
		c-0.2,0.3-0.3,0.6-0.5,0.9c-0.2,0.3-0.3,0.6-0.4,0.8s-0.2,0.5-0.3,0.6c0,0.2-0.1,0.4-0.1,0.5s-0.1,0.3-0.1,0.5c0,0,0,0.1,0,0.1
		c0,0,0,0.1,0,0.1s0,0.1-0.1,0.1c0,0-0.1,0-0.2,0c-0.1,0-0.2,0-0.3-0.1s-0.3-0.1-0.4-0.2S40,19,39.9,18.9c-0.1-0.1-0.1-0.2-0.1-0.4
		c0-0.1,0.1-0.3,0.1-0.6c0.1-0.3,0.2-0.7,0.3-1.1c0.1-0.4,0.3-0.9,0.5-1.4c0.2-0.5,0.4-0.9,0.6-1.3c0-0.1,0.1-0.1,0.1-0.2
		s0-0.1,0-0.1c0,0-0.1,0-0.2,0.1c-0.1,0.1-0.2,0.3-0.3,0.5s-0.3,0.4-0.4,0.7s-0.3,0.5-0.4,0.8c-0.1,0.3-0.3,0.5-0.4,0.8
		c-0.1,0.2-0.3,0.5-0.4,0.7c-0.2,0.4-0.3,0.9-0.4,1.2s-0.1,0.6-0.1,0.8c0,0.1,0,0.1,0,0.1c0,0-0.1,0-0.1,0s-0.1,0-0.1,0
		s-0.1,0-0.1,0c0,0-0.1,0-0.1-0.1c-0.1,0-0.1-0.1-0.2-0.1c-0.1,0-0.1-0.1-0.2-0.1c-0.1-0.1-0.1-0.1-0.2-0.2
		c-0.1-0.2-0.2-0.5-0.1-0.8c0-0.3,0.1-0.6,0.2-1c0.1-0.4,0.3-0.7,0.4-1.2c0.2-0.4,0.3-0.8,0.5-1.3c0.2-0.4,0.3-0.9,0.4-1.3
		C39.3,13,39.4,12.6,39.4,12.1z"/>
	<path class="st1" d="M48.8,12.4c0,0,0.1-0.1,0.1-0.1s0.2,0,0.3,0s0.3,0.1,0.4,0.2s0.3,0.2,0.4,0.3c0.1,0.1,0.2,0.2,0.2,0.3
		c0,0.1,0,0.3-0.1,0.4c-0.2,0.4-0.4,0.9-0.6,1.4c-0.2,0.5-0.4,1-0.5,1.4c-0.1,0.4-0.2,0.7-0.3,1c-0.1,0.3-0.1,0.4,0,0.4
		c0.1,0,0.2-0.1,0.3-0.2s0.2-0.3,0.4-0.5c0.1-0.2,0.3-0.4,0.4-0.6c0.1-0.2,0.3-0.4,0.4-0.6c0.1-0.2,0.2-0.3,0.3-0.5
		c0.1-0.1,0.1-0.2,0.2-0.2c0,0,0.1,0,0.1,0s0.1,0,0.2,0.1c0.1,0,0.1,0.1,0.1,0.2c0,0.1,0,0.2,0,0.3c0,0.1-0.1,0.2-0.2,0.4
		c-0.1,0.2-0.2,0.5-0.4,0.8c-0.2,0.3-0.3,0.6-0.5,0.9c-0.2,0.3-0.4,0.6-0.6,0.8c-0.2,0.2-0.4,0.4-0.7,0.5c-0.2,0.1-0.5,0.1-0.7,0
		c-0.1,0-0.2-0.1-0.3-0.2c-0.1-0.1-0.1-0.2-0.2-0.3s-0.1-0.2-0.1-0.3s0-0.2,0-0.2c0-0.1,0-0.3,0-0.5c-0.2,0.5-0.5,0.9-0.8,1.2
		c-0.3,0.3-0.5,0.4-0.8,0.3c-0.3-0.1-0.5-0.2-0.6-0.3c-0.1-0.1-0.2-0.3-0.3-0.4c-0.1-0.2-0.1-0.3-0.1-0.5c0-0.2,0-0.3,0-0.5
		c0-0.3,0.1-0.7,0.1-1.1c0.1-0.4,0.2-0.8,0.3-1.2c0.1-0.4,0.3-0.8,0.5-1.2c0.2-0.4,0.4-0.7,0.6-0.9c0.2-0.3,0.5-0.4,0.8-0.5
		c0.3-0.1,0.6-0.1,0.9,0c0.2,0.1,0.3,0.2,0.4,0.3c0.1,0.1,0.1,0.3,0.1,0.5L48.8,12.4z M48.1,13.4c-0.1,0-0.2,0.1-0.4,0.3
		c-0.1,0.2-0.3,0.5-0.4,0.8c-0.1,0.3-0.3,0.6-0.4,1c-0.1,0.4-0.2,0.7-0.3,1c-0.1,0.3-0.1,0.6-0.1,0.7c0,0.2,0.1,0.3,0.2,0.2
		c0.2,0,0.3-0.2,0.5-0.4c0.1-0.2,0.3-0.5,0.4-0.7c0.1-0.3,0.3-0.6,0.4-0.9c0.1-0.3,0.2-0.6,0.2-0.9s0.1-0.5,0.1-0.7
		C48.2,13.5,48.2,13.4,48.1,13.4z"/>
	<path class="st1" d="M51.1,12.1c0-0.1,0-0.2,0.1-0.2s0.1,0,0.2,0c0,0,0.1,0,0.2,0.1c0.1,0,0.2,0.1,0.4,0.2c0.1,0.1,0.2,0.2,0.3,0.4
		c0.1,0.1,0.1,0.3,0.1,0.5c0,0.3-0.1,0.6-0.3,1c-0.1,0.4-0.3,0.9-0.5,1.4c0.2-0.3,0.4-0.7,0.6-1.1c0.2-0.4,0.5-0.8,0.7-1.1
		c0.2-0.4,0.5-0.7,0.7-0.9S54,12,54.1,12c0.2,0,0.3,0,0.4,0.1c0.1,0.1,0.3,0.2,0.4,0.3c0.1,0.1,0.2,0.3,0.2,0.4s0,0.2,0,0.3
		c-0.1,0.1-0.2,0.4-0.4,0.7c-0.1,0.3-0.3,0.6-0.5,1s-0.3,0.8-0.5,1.3c-0.1,0.5-0.3,0.9-0.4,1.4c-0.1,0.5-0.1,1-0.2,1.5
		s0,0.9,0.1,1.4c0,0.1,0,0.1,0,0.2c0,0.1-0.1,0.1-0.3,0.1c-0.1,0-0.2,0-0.3-0.1c-0.1,0-0.3-0.1-0.4-0.2c-0.1-0.1-0.2-0.3-0.4-0.5
		C52,19.7,52,19.4,51.9,19c0-0.2,0-0.4,0-0.8c0-0.4,0.1-0.8,0.2-1.2c0.1-0.4,0.2-0.9,0.3-1.4c0.1-0.5,0.3-0.9,0.5-1.3
		c0-0.1,0.1-0.1,0.1-0.2s0-0.1,0-0.1c0,0-0.1,0.1-0.2,0.2c-0.1,0.2-0.2,0.4-0.4,0.6c-0.2,0.3-0.3,0.6-0.5,0.9
		c-0.2,0.3-0.4,0.6-0.5,1c-0.2,0.3-0.3,0.6-0.5,0.9c-0.1,0.3-0.2,0.5-0.3,0.6c-0.1,0.2-0.1,0.4-0.1,0.6s0,0.3,0,0.4
		c0,0.1,0,0.1,0,0.1c0,0-0.1,0-0.1,0s-0.1,0-0.1,0s-0.1,0-0.1,0c0,0-0.1,0-0.1-0.1c-0.1,0-0.1-0.1-0.2-0.1c-0.1,0-0.1-0.1-0.2-0.1
		c-0.1-0.1-0.1-0.1-0.2-0.2c-0.1-0.2-0.2-0.5-0.1-0.8c0-0.3,0.1-0.6,0.2-1c0.1-0.4,0.3-0.7,0.4-1.2c0.2-0.4,0.3-0.8,0.5-1.3
		c0.2-0.4,0.3-0.9,0.4-1.3C51,13,51.1,12.6,51.1,12.1z"/>
	<path class="st1" d="M64.5,5.5c0.5,0,0.8,0,1.2,0.1s0.6,0.2,0.8,0.4c0.2,0.2,0.3,0.3,0.4,0.5S67,6.8,67.1,7s0.1,0.3,0.1,0.5
		c0,0.1,0,0.3,0,0.3c0,0.4-0.1,0.8-0.3,1.1c-0.2,0.3-0.4,0.6-0.6,0.9c-0.2,0.3-0.5,0.5-0.8,0.6c-0.3,0.2-0.5,0.3-0.7,0.3
		c-0.3,0.1-0.5,0.1-0.7,0c-0.2-0.1-0.3-0.2-0.4-0.3c-0.1-0.1-0.2-0.3-0.2-0.4c0-0.1,0-0.2,0-0.3s0-0.2,0-0.3c0-0.1,0-0.2,0.1-0.3
		s0.1-0.2,0.2-0.3c0.1-0.1,0.2-0.1,0.3-0.2c0.1,0,0.2,0,0.2,0c0.1,0,0.1,0.1,0.2,0.1c0,0.1,0.1,0.1,0.1,0.2c0,0.1,0,0.1,0,0.1
		C64.7,9,64.9,8.9,65,8.8c0.1-0.1,0.2-0.2,0.3-0.4c0.1-0.1,0.1-0.3,0.1-0.5c0-0.1,0-0.1,0-0.2s0-0.1-0.1-0.2s-0.1-0.1-0.2-0.2
		S65.1,7.3,65,7.3c-0.3,0-0.6,0.1-0.9,0.2c-0.3,0.1-0.6,0.3-0.9,0.6c-0.3,0.2-0.6,0.5-0.8,0.8c-0.3,0.3-0.5,0.6-0.7,1
		s-0.3,0.6-0.5,0.9c-0.1,0.3-0.2,0.6-0.2,0.8c0,0.2,0,0.3,0.1,0.4s0.2,0.2,0.4,0.3s0.3,0.1,0.5,0.1c0.2,0,0.4,0.1,0.5,0.1
		c0.2,0,0.3,0,0.5,0.1c0.1,0,0.3,0,0.4,0.1c0.1,0,0.2,0.1,0.2,0.3c0.1,0.2,0.1,0.3,0.2,0.5c0.1,0.2,0.1,0.4,0.1,0.5
		c0,0.2,0,0.3,0,0.3c0,0.1,0,0.2-0.1,0.2s-0.1,0-0.2,0c-0.1,0-0.3-0.1-0.5,0c-0.2,0-0.5,0.1-0.8,0.2s-0.6,0.3-0.9,0.5
		c-0.3,0.2-0.6,0.4-0.9,0.7c-0.3,0.3-0.5,0.6-0.7,0.9c-0.2,0.3-0.3,0.7-0.2,1.1c0,0.3,0.1,0.5,0.3,0.7c0.2,0.2,0.5,0.3,0.7,0.3
		c0.1,0,0.2,0,0.4-0.1c0.2-0.1,0.3-0.2,0.5-0.3c0.2-0.1,0.4-0.3,0.6-0.5c0.2-0.2,0.4-0.4,0.5-0.6c0.2-0.2,0.3-0.5,0.4-0.8
		c0.1-0.3,0.2-0.6,0.2-1c0-0.1,0-0.2,0.1-0.3c0-0.1,0.1-0.1,0.1-0.1c0,0,0.1,0,0.1,0c0,0,0.1,0,0.1,0c0.1,0,0.1,0,0.3,0.1
		c0.1,0,0.2,0.1,0.4,0.2c0.1,0.1,0.2,0.3,0.3,0.4c0.1,0.2,0.1,0.4,0,0.7c0,0.1-0.1,0.2-0.1,0.4c-0.1,0.2-0.1,0.4-0.3,0.7
		c-0.1,0.2-0.3,0.5-0.5,0.8c-0.2,0.3-0.4,0.5-0.8,0.8c-0.3,0.2-0.7,0.4-1.1,0.6c-0.4,0.2-0.9,0.3-1.5,0.3c-0.1,0-0.3,0-0.5,0
		c-0.2,0-0.4,0-0.6-0.1c-0.2-0.1-0.4-0.2-0.7-0.3c-0.2-0.1-0.4-0.3-0.6-0.5c-0.2-0.2-0.3-0.5-0.4-0.8c-0.1-0.3-0.1-0.7-0.1-1.2
		c0-0.4,0.1-0.8,0.3-1.2c0.2-0.4,0.4-0.9,0.7-1.2s0.6-0.7,0.9-0.9c0.3-0.2,0.7-0.3,1-0.3c0.2,0,0.4,0.1,0.5,0c0.2,0,0.3,0,0.4-0.1
		c0.1,0,0.3-0.1,0.4-0.1c-0.5,0.1-0.9,0.1-1.3,0c-0.2,0-0.3-0.1-0.5-0.2s-0.3-0.2-0.4-0.4c-0.1-0.2-0.2-0.4-0.3-0.6
		s-0.1-0.6-0.1-0.9c0-0.3,0.1-0.7,0.2-1.2c0.1-0.4,0.2-0.9,0.4-1.3s0.4-0.9,0.7-1.3c0.3-0.4,0.6-0.8,1-1.1C62,6.2,62.4,6,62.9,5.8
		C63.4,5.6,63.9,5.5,64.5,5.5z"/>
	<path class="st1" d="M66.1,12.1c0-0.1,0-0.2,0.1-0.2s0.1,0,0.2,0c0,0,0.1,0,0.2,0.1c0.1,0,0.2,0.1,0.4,0.2c0.1,0.1,0.2,0.2,0.3,0.4
		c0.1,0.1,0.1,0.3,0.1,0.5c0,0.3-0.1,0.6-0.3,1c-0.2,0.4-0.3,0.9-0.5,1.4c0.2-0.3,0.4-0.7,0.6-1.1c0.2-0.4,0.5-0.8,0.7-1.1
		c0.2-0.4,0.5-0.7,0.7-0.9S69,12,69.1,12c0.2,0,0.3,0,0.4,0.1s0.3,0.2,0.4,0.3c0.1,0.1,0.2,0.3,0.2,0.4s0,0.2,0,0.3
		c-0.1,0.1-0.2,0.4-0.4,0.7c-0.1,0.3-0.3,0.6-0.5,1c-0.2,0.4-0.3,0.8-0.5,1.3c-0.1,0.5-0.3,0.9-0.4,1.4c-0.1,0.5-0.1,1-0.2,1.5
		c0,0.5,0,0.9,0.1,1.4c0,0.1,0,0.1,0,0.2c0,0.1-0.1,0.1-0.3,0.1c-0.1,0-0.2,0-0.3-0.1s-0.3-0.1-0.4-0.2c-0.1-0.1-0.2-0.3-0.4-0.5
		c-0.1-0.2-0.2-0.5-0.2-0.8c0-0.2,0-0.4,0-0.8c0-0.4,0.1-0.8,0.2-1.2c0.1-0.4,0.2-0.9,0.3-1.4c0.1-0.5,0.3-0.9,0.5-1.3
		c0-0.1,0.1-0.1,0.1-0.2c0-0.1,0-0.1,0-0.1c0,0-0.1,0.1-0.2,0.2c-0.1,0.2-0.2,0.4-0.4,0.6c-0.2,0.3-0.3,0.6-0.5,0.9
		c-0.2,0.3-0.4,0.6-0.5,1s-0.3,0.6-0.5,0.9c-0.1,0.3-0.2,0.5-0.3,0.6c-0.1,0.2-0.1,0.4-0.1,0.6s0,0.3,0,0.4c0,0.1,0,0.1,0,0.1
		c0,0-0.1,0-0.1,0s-0.1,0-0.1,0s-0.1,0-0.1,0c0,0-0.1,0-0.1-0.1c-0.1,0-0.1-0.1-0.2-0.1c-0.1,0-0.1-0.1-0.2-0.1
		c-0.1-0.1-0.1-0.1-0.2-0.2c-0.1-0.2-0.2-0.5-0.1-0.8c0-0.3,0.1-0.6,0.2-1c0.1-0.4,0.3-0.7,0.4-1.2c0.2-0.4,0.3-0.8,0.5-1.3
		c0.2-0.4,0.3-0.9,0.4-1.3C66,13,66.1,12.6,66.1,12.1z"/>
	<path class="st1" d="M83.5,5.5c0.2,0,0.3,0.1,0.4,0.2C84,5.8,84.1,5.9,84.1,6c0,0.1,0,0.3,0,0.4s0,0.2-0.1,0.3
		C84,7,83.8,7.3,83.6,7.6c-0.2,0.3-0.3,0.6-0.4,0.9c-0.2,0.5-0.3,1-0.5,1.6c-0.1,0.6-0.3,1.2-0.4,1.8s-0.3,1.3-0.5,1.9
		c-0.2,0.6-0.4,1.3-0.7,1.9c-0.3,0.6-0.6,1.2-0.9,1.7s-0.7,1-1.2,1.4c-0.5,0.4-1,0.7-1.6,1c-0.6,0.2-1.3,0.4-2.1,0.4
		c-0.1,0-0.2,0-0.4,0S74.6,20,74.4,20c-0.2-0.1-0.4-0.2-0.6-0.3c-0.2-0.1-0.4-0.3-0.5-0.5c-0.2-0.2-0.3-0.5-0.4-0.8
		c-0.1-0.3-0.1-0.7-0.1-1.1c0-0.1,0-0.3,0.1-0.5c0.1-0.2,0.2-0.5,0.3-0.7c0.1-0.3,0.3-0.5,0.5-0.7c0.2-0.2,0.5-0.3,0.8-0.4
		c0.1,0,0.2,0,0.3,0s0.3,0.1,0.5,0.1s0.3,0.2,0.5,0.3c0.1,0.1,0.3,0.3,0.3,0.5c0.1,0.1,0.1,0.2,0,0.3c0,0.1-0.1,0.1-0.2,0.1
		c-0.1,0-0.2,0.1-0.3,0.2c-0.1,0.1-0.2,0.2-0.3,0.4c-0.1,0.1-0.2,0.3-0.2,0.5c-0.1,0.2-0.1,0.3-0.1,0.4c0,0.2,0.1,0.4,0.1,0.5
		c0.1,0.1,0.2,0.2,0.3,0.3s0.2,0.1,0.4,0.1c0.1,0,0.3,0,0.4,0c0.5-0.1,0.9-0.4,1.2-0.8s0.7-0.8,1-1.4c0.3-0.5,0.6-1.2,0.8-1.8
		c0.2-0.7,0.5-1.4,0.7-2.1c0.2-0.7,0.4-1.4,0.6-2.1c0.2-0.7,0.4-1.3,0.6-1.9c0,0,0.1-0.1,0.2-0.3c0.1-0.1,0.3-0.3,0.4-0.4
		c0.2-0.1,0.3-0.3,0.4-0.4c0.1-0.1,0.2-0.2,0.2-0.2c0,0-0.2,0.1-0.4,0.3c-0.2,0.2-0.5,0.4-0.9,0.7c-0.3,0.3-0.7,0.6-1.1,1
		s-0.8,0.8-1.1,1.2s-0.6,0.8-0.8,1.3s-0.3,0.8-0.3,1.2c0,0.1,0,0.2,0,0.3c0,0.1,0.1,0.2,0.1,0.3c0.1,0.1,0.1,0.1,0.2,0.2
		c0.1,0,0.2,0,0.3,0c0.1,0,0.2,0,0.2,0.2s-0.1,0.4-0.2,0.6c-0.1,0.1-0.2,0.2-0.4,0.3c-0.2,0.1-0.4,0.1-0.6,0.2c-0.2,0-0.4,0-0.6,0
		c-0.2,0-0.4-0.1-0.6-0.3c-0.2-0.1-0.3-0.3-0.4-0.6c-0.1-0.2-0.1-0.6-0.1-0.9c0-0.4,0.1-0.8,0.4-1.2s0.5-0.8,0.8-1.3
		s0.7-0.9,1.1-1.3c0.4-0.4,0.9-0.8,1.3-1.2c0.5-0.4,0.9-0.7,1.3-1.1c0.4-0.3,0.9-0.6,1.2-0.9c0.4-0.2,0.7-0.4,1-0.6
		C83.2,5.5,83.4,5.5,83.5,5.5z M82.8,3.1c0.1-0.3,0.2-0.5,0.4-0.7c0.2-0.2,0.5-0.3,0.7-0.3c0.3,0,0.4,0.1,0.6,0.3
		c0.1,0.2,0.2,0.4,0.1,0.7c0,0.1-0.1,0.3-0.2,0.4c-0.1,0.1-0.2,0.2-0.3,0.3C84.1,3.9,84,4,83.9,4c-0.1,0.1-0.2,0.1-0.4,0.1
		c-0.3,0-0.4-0.1-0.6-0.3C82.8,3.6,82.7,3.4,82.8,3.1z"/>
	<path class="st1" d="M82.8,12.4c0,0,0.1-0.1,0.2-0.1c0.1,0,0.2,0,0.3,0c0.1,0,0.3,0.1,0.4,0.2c0.1,0.1,0.2,0.2,0.3,0.3
		c0.1,0.1,0.2,0.2,0.2,0.3c0,0.1,0,0.3-0.1,0.4C84,14,83.7,14.5,83.6,15c-0.2,0.5-0.4,1-0.5,1.4c-0.1,0.4-0.2,0.7-0.3,1
		c-0.1,0.3-0.1,0.4,0,0.4c0.1,0,0.2-0.1,0.4-0.3c0.2-0.2,0.3-0.4,0.5-0.7c0.2-0.2,0.4-0.5,0.5-0.8c0.2-0.3,0.3-0.5,0.4-0.6
		c0.1-0.3,0.2-0.6,0.4-0.9c0.1-0.3,0.2-0.6,0.3-0.9c0.1-0.3,0.2-0.5,0.2-0.7c0.1-0.2,0.1-0.4,0.1-0.6c0-0.1,0.1-0.1,0.1-0.2
		c0.1,0,0.2,0,0.3,0c0.1,0,0.2,0.1,0.4,0.2c0.1,0.1,0.2,0.2,0.4,0.3c0.1,0.1,0.2,0.2,0.2,0.3s0.1,0.2,0,0.3c-0.5,1.5-1,2.9-1.5,4.1
		s-0.9,2.2-1.4,3c0.4,0.2,0.7,0.4,0.9,0.6c0.2,0.2,0.3,0.3,0.3,0.4c0,0.1,0,0.1-0.1,0.2s-0.2,0.1-0.3,0.1c-0.1,0-0.2,0-0.3,0
		c-0.1,0-0.2,0-0.3-0.1c-0.1,0-0.1-0.1-0.2-0.2c-0.1-0.1-0.2-0.2-0.3-0.3c-0.1-0.1-0.3-0.2-0.6-0.3c-0.2-0.1-0.6-0.2-1-0.3
		c0.2,0.1,0.5,0.2,0.7,0.3c0.2,0.1,0.4,0.2,0.6,0.4c-0.3,0.3-0.5,0.6-0.8,0.8c-0.3,0.3-0.6,0.5-0.9,0.6s-0.6,0.3-0.9,0.4
		s-0.7,0.2-1.1,0.2c-0.5,0-0.9,0-1.2-0.1s-0.6-0.2-0.8-0.3c-0.2-0.1-0.4-0.3-0.5-0.4c-0.1-0.1-0.2-0.3-0.2-0.4c0-0.1-0.1-0.3,0-0.4
		c0-0.1,0-0.2,0-0.3c0.1-0.2,0.1-0.4,0.3-0.6c0.1-0.2,0.3-0.4,0.6-0.5c0.3-0.1,0.6-0.3,0.9-0.4c0.4-0.1,0.8-0.2,1.3-0.2
		c0.5,0,0.9,0,1.3,0c0.4,0,0.8,0.1,1.1,0.1l0.1-0.1l0.2-0.4c0,0,0.1-0.1,0.2-0.2c0.1-0.1,0.2-0.2,0.3-0.3c0.1-0.1,0.2-0.2,0.3-0.4
		c0.1-0.1,0.2-0.3,0.2-0.5c-0.1,0.2-0.3,0.4-0.4,0.5s-0.3,0.3-0.5,0.4c-0.2,0.1-0.3,0.2-0.5,0.2c-0.2,0-0.3,0-0.5,0
		c-0.1,0-0.2-0.1-0.3-0.2c-0.1-0.1-0.1-0.2-0.2-0.3s-0.1-0.2-0.1-0.3c0-0.1,0-0.2,0-0.2c0-0.2,0-0.4,0-0.7c0.1-0.3,0.1-0.7,0.2-1
		c0.1-0.4,0.2-0.8,0.3-1.2c0.1-0.4,0.2-0.8,0.3-1.2s0.2-0.7,0.3-1C82.7,12.7,82.8,12.5,82.8,12.4z M82.2,20.4
		c-0.3,0-0.6-0.1-0.9-0.1c-0.3,0-0.7,0-1.2,0c-0.5,0-0.9,0.1-1.1,0.2c-0.3,0.1-0.5,0.2-0.6,0.3c-0.1,0.1-0.2,0.2-0.3,0.3
		c0,0.1-0.1,0.2-0.1,0.2c0,0,0,0.1,0,0.2c0,0.1,0.1,0.1,0.2,0.2c0.1,0.1,0.3,0.1,0.5,0.1c0.2,0,0.5,0.1,1,0.1c0.3,0,0.5,0,0.8-0.1
		s0.5-0.2,0.7-0.3c0.2-0.1,0.4-0.3,0.6-0.5C81.9,20.8,82.1,20.6,82.2,20.4z"/>
	<path class="st1" d="M87.8,12.4c0,0,0.1-0.1,0.2-0.1c0.1,0,0.2,0,0.3,0c0.1,0,0.3,0.1,0.4,0.2c0.1,0.1,0.2,0.2,0.3,0.3
		c0.1,0.1,0.2,0.2,0.2,0.3c0,0.1,0,0.3-0.1,0.4C89,14,88.8,14.5,88.6,15c-0.2,0.5-0.4,1-0.5,1.4c-0.1,0.4-0.2,0.7-0.3,1
		c-0.1,0.3-0.1,0.4,0,0.4c0.1,0,0.2-0.1,0.3-0.2c0.1-0.1,0.2-0.3,0.4-0.5c0.1-0.2,0.3-0.4,0.4-0.6c0.1-0.2,0.3-0.4,0.4-0.6
		c0.1-0.2,0.2-0.3,0.3-0.5c0.1-0.1,0.1-0.2,0.2-0.2c0,0,0.1,0,0.1,0c0.1,0,0.1,0,0.2,0.1c0.1,0,0.1,0.1,0.1,0.2c0,0.1,0,0.2,0,0.3
		c0,0.1-0.1,0.2-0.2,0.4c-0.1,0.2-0.2,0.5-0.4,0.8c-0.2,0.3-0.3,0.6-0.5,0.9s-0.4,0.6-0.6,0.8c-0.2,0.2-0.4,0.4-0.7,0.5
		c-0.2,0.1-0.5,0.1-0.7,0c-0.1,0-0.2-0.1-0.3-0.2c-0.1-0.1-0.1-0.2-0.2-0.3c0-0.1-0.1-0.2-0.1-0.3c0-0.1,0-0.2,0-0.2
		c0-0.2,0-0.4,0-0.7c0-0.3,0.1-0.7,0.2-1c0.1-0.4,0.2-0.8,0.3-1.2c0.1-0.4,0.2-0.8,0.4-1.2s0.2-0.7,0.3-1
		C87.7,12.7,87.8,12.5,87.8,12.4z M89.4,9c0.1,0,0.3,0,0.5,0c0.2,0.1,0.4,0.2,0.6,0.3c0.2,0.1,0.3,0.2,0.4,0.4
		c0.1,0.1,0.1,0.2,0,0.3c-0.1,0.1-0.2,0.2-0.3,0.3c-0.1,0.1-0.2,0.2-0.4,0.4c-0.1,0.1-0.2,0.3-0.3,0.5c-0.1,0.2-0.2,0.4-0.3,0.6
		c0,0.1-0.1,0.1-0.2,0.1s-0.2-0.1-0.3-0.1c-0.1-0.1-0.2-0.2-0.3-0.3s-0.2-0.2-0.2-0.2c0-0.1,0-0.2,0-0.5c0.1-0.2,0.1-0.5,0.2-0.7
		c0.1-0.3,0.2-0.5,0.3-0.7C89.3,9.2,89.3,9,89.4,9z"/>
	<path class="st1" d="M92.2,11.8c0.1,0,0.3,0,0.4,0.1c0.2,0,0.3,0.1,0.4,0.2c0.1,0.1,0.2,0.2,0.3,0.4c0.1,0.2,0.1,0.4,0.1,0.7
		c0,0.1,0,0.2-0.1,0.3s-0.1,0.2-0.1,0.4c-0.1,0.1-0.1,0.3-0.2,0.4c-0.1,0.1-0.2,0.2-0.3,0.3c-0.1,0.1-0.3,0.2-0.4,0.2
		s-0.3,0-0.4-0.1c-0.1-0.1-0.2-0.1-0.2-0.3c0-0.1,0-0.2,0.1-0.3c0,0,0-0.1,0.1-0.1c0-0.1,0.1-0.1,0.1-0.2c0.1-0.1,0.1-0.2,0.1-0.2
		c0-0.1,0.1-0.1,0.1-0.2c0-0.1,0-0.2-0.2-0.2c-0.1,0-0.3,0-0.5,0.1c-0.2,0.1-0.3,0.2-0.5,0.4S91,14.1,91,14.3c0,0.1,0.1,0.3,0.2,0.4
		c0.2,0.2,0.3,0.3,0.5,0.6c0.3-0.2,0.7-0.4,1-0.5c0.3-0.1,0.6-0.3,0.8-0.4c0.3-0.1,0.5-0.2,0.6-0.2c0.2,0,0.3-0.1,0.3-0.1
		c0.1,0,0.1,0,0.2,0c0.1,0.1,0.1,0.1,0.2,0.2c0,0.1,0.1,0.2,0.1,0.2c0,0.1,0,0.1-0.1,0.1c-0.1,0-0.2,0.1-0.5,0.1
		c-0.2,0.1-0.5,0.2-0.8,0.3c-0.3,0.1-0.7,0.3-1,0.5s-0.7,0.4-1,0.7c0.1,0,0.1-0.1,0.2-0.1c0.1,0,0.2-0.1,0.3-0.1s0.2-0.1,0.2-0.1
		c0.1,0,0.1,0,0.1-0.1c0.1,0.2,0.3,0.4,0.3,0.6s0.1,0.4,0.1,0.7c0,0.5-0.1,0.9-0.3,1.2c-0.1,0.3-0.3,0.6-0.5,0.8
		c-0.2,0.2-0.4,0.4-0.6,0.5c-0.2,0.1-0.4,0.2-0.6,0.3s-0.3,0.1-0.5,0.1s-0.2,0-0.3,0c-0.3,0-0.5,0-0.7-0.2c-0.2-0.1-0.3-0.3-0.4-0.4
		c-0.1-0.2-0.1-0.3-0.2-0.5s0-0.4,0-0.5c0.1-0.5,0.3-1,0.5-1.4c0.3-0.4,0.6-0.8,1-1.1c-0.1-0.1-0.2-0.2-0.3-0.3
		c-0.1-0.1-0.2-0.2-0.3-0.3c-0.1-0.1-0.1-0.3-0.2-0.5s0-0.4,0-0.6c0-0.5,0.1-0.9,0.4-1.2c0.2-0.4,0.4-0.6,0.7-0.9
		c0.3-0.2,0.6-0.4,0.8-0.5S92.1,11.8,92.2,11.8z M91.1,17.9c0-0.3,0-0.5,0-0.7c0-0.2-0.1-0.3-0.2-0.5c-0.2,0.2-0.4,0.4-0.5,0.7
		c-0.2,0.2-0.3,0.5-0.4,0.8c-0.1,0.3-0.1,0.5,0,0.6s0.2,0.1,0.4,0.1c0.1,0,0.3-0.2,0.5-0.3C91,18.4,91.1,18.2,91.1,17.9z"/>
	<path class="st1" d="M94.7,12.4c0,0,0.1-0.1,0.2-0.1c0.1,0,0.2,0,0.3,0c0.1,0,0.3,0.1,0.4,0.2c0.1,0.1,0.2,0.2,0.3,0.3
		c0.1,0.1,0.2,0.2,0.2,0.3c0,0.1,0,0.3-0.1,0.4c-0.2,0.4-0.4,0.9-0.6,1.4c-0.2,0.5-0.4,1-0.5,1.4c-0.1,0.4-0.2,0.7-0.3,1
		c-0.1,0.3-0.1,0.4,0,0.4c0.1,0,0.2-0.1,0.3-0.2c0.1-0.1,0.2-0.3,0.4-0.5c0.1-0.2,0.3-0.4,0.4-0.6c0.1-0.2,0.3-0.4,0.4-0.6
		c0.1-0.2,0.2-0.3,0.3-0.5c0.1-0.1,0.1-0.2,0.2-0.2c0,0,0.1,0,0.1,0c0.1,0,0.1,0,0.2,0.1c0.1,0,0.1,0.1,0.1,0.2c0,0.1,0,0.2,0,0.3
		c0,0.1-0.1,0.2-0.2,0.4c-0.1,0.2-0.2,0.5-0.4,0.8c-0.2,0.3-0.3,0.6-0.5,0.9s-0.4,0.6-0.6,0.8c-0.2,0.2-0.4,0.4-0.7,0.5
		c-0.2,0.1-0.5,0.1-0.7,0c-0.1,0-0.2-0.1-0.3-0.2c-0.1-0.1-0.1-0.2-0.2-0.3c0-0.1-0.1-0.2-0.1-0.3c0-0.1,0-0.2,0-0.2
		c0-0.2,0-0.4,0-0.7c0-0.3,0.1-0.7,0.2-1c0.1-0.4,0.2-0.8,0.3-1.2c0.1-0.4,0.2-0.8,0.4-1.2s0.2-0.7,0.3-1
		C94.6,12.7,94.6,12.5,94.7,12.4z M96.2,9c0.1,0,0.3,0,0.5,0c0.2,0.1,0.4,0.2,0.6,0.3c0.2,0.1,0.3,0.2,0.4,0.4
		c0.1,0.1,0.1,0.2,0,0.3c-0.1,0.1-0.2,0.2-0.3,0.3c-0.1,0.1-0.2,0.2-0.4,0.4c-0.1,0.1-0.2,0.3-0.3,0.5c-0.1,0.2-0.2,0.4-0.3,0.6
		c0,0.1-0.1,0.1-0.2,0.1s-0.2-0.1-0.3-0.1c-0.1-0.1-0.2-0.2-0.3-0.3s-0.2-0.2-0.2-0.2c0-0.1,0-0.2,0-0.5c0.1-0.2,0.1-0.5,0.2-0.7
		c0.1-0.3,0.2-0.5,0.3-0.7C96.1,9.2,96.2,9,96.2,9z"/>
	<path class="st1" d="M97.1,12.1c0-0.1,0-0.2,0.1-0.2s0.1,0,0.2,0c0,0,0.1,0,0.2,0.1c0.1,0,0.2,0.1,0.4,0.2c0.1,0.1,0.2,0.2,0.3,0.4
		c0.1,0.1,0.1,0.3,0.1,0.5c0,0.3-0.1,0.6-0.3,1c-0.1,0.4-0.3,0.9-0.5,1.4c0.2-0.3,0.4-0.7,0.6-1.1s0.5-0.8,0.7-1.1s0.5-0.7,0.7-0.9
		c0.2-0.3,0.4-0.4,0.5-0.4c0.2,0,0.3,0,0.4,0.1s0.3,0.2,0.4,0.3c0.1,0.1,0.2,0.3,0.2,0.4c0,0.1,0,0.2,0,0.3
		c-0.1,0.1-0.2,0.4-0.4,0.7c-0.1,0.3-0.3,0.6-0.5,1c-0.2,0.4-0.3,0.8-0.5,1.3c-0.1,0.5-0.3,0.9-0.4,1.4c-0.1,0.5-0.1,1-0.2,1.5
		s0,0.9,0.1,1.4c0,0.1,0,0.1,0,0.2c0,0.1-0.1,0.1-0.3,0.1c-0.1,0-0.2,0-0.3-0.1c-0.1,0-0.3-0.1-0.4-0.2c-0.1-0.1-0.2-0.3-0.4-0.5
		C98,19.7,98,19.4,97.9,19c0-0.2,0-0.4,0-0.8c0-0.4,0.1-0.8,0.2-1.2c0.1-0.4,0.2-0.9,0.3-1.4c0.1-0.5,0.3-0.9,0.5-1.3
		c0-0.1,0.1-0.1,0.1-0.2s0-0.1,0-0.1c0,0-0.1,0.1-0.2,0.2c-0.1,0.2-0.2,0.4-0.4,0.6s-0.3,0.6-0.5,0.9c-0.2,0.3-0.4,0.6-0.5,1
		s-0.3,0.6-0.5,0.9c-0.1,0.3-0.2,0.5-0.3,0.6c-0.1,0.2-0.1,0.4-0.1,0.6s0,0.3,0,0.4c0,0.1,0,0.1,0,0.1c0,0-0.1,0-0.1,0
		c0,0-0.1,0-0.1,0c0,0-0.1,0-0.1,0c0,0-0.1,0-0.1-0.1c-0.1,0-0.1-0.1-0.2-0.1c-0.1,0-0.1-0.1-0.2-0.1s-0.1-0.1-0.2-0.2
		c-0.1-0.2-0.2-0.5-0.1-0.8c0-0.3,0.1-0.6,0.2-1c0.1-0.4,0.3-0.7,0.4-1.2c0.2-0.4,0.3-0.8,0.5-1.3c0.2-0.4,0.3-0.9,0.4-1.3
		C97,13,97.1,12.6,97.1,12.1z"/>
	<path class="st1" d="M101.8,12.4c0,0,0.1-0.1,0.2-0.1c0.1,0,0.2,0,0.3,0c0.1,0,0.3,0.1,0.4,0.2c0.1,0.1,0.2,0.2,0.3,0.3
		c0.1,0.1,0.2,0.2,0.2,0.3c0,0.1,0,0.3-0.1,0.4c-0.2,0.4-0.4,0.9-0.6,1.4c-0.2,0.5-0.4,1-0.5,1.4c-0.1,0.4-0.2,0.7-0.3,1
		c-0.1,0.3-0.1,0.4,0,0.4c0.1,0,0.2-0.1,0.3-0.2c0.1-0.1,0.2-0.3,0.4-0.5c0.1-0.2,0.3-0.4,0.4-0.6c0.1-0.2,0.3-0.4,0.4-0.6
		c0.1-0.2,0.2-0.3,0.3-0.5c0.1-0.1,0.1-0.2,0.2-0.2c0,0,0.1,0,0.1,0c0.1,0,0.1,0,0.2,0.1c0.1,0,0.1,0.1,0.1,0.2c0,0.1,0,0.2,0,0.3
		c0,0.1-0.1,0.2-0.2,0.4c-0.1,0.2-0.2,0.5-0.4,0.8c-0.2,0.3-0.3,0.6-0.5,0.9s-0.4,0.6-0.6,0.8c-0.2,0.2-0.4,0.4-0.7,0.5
		c-0.2,0.1-0.5,0.1-0.7,0c-0.1,0-0.2-0.1-0.3-0.2c-0.1-0.1-0.1-0.2-0.2-0.3c0-0.1-0.1-0.2-0.1-0.3c0-0.1,0-0.2,0-0.2
		c0-0.2,0-0.4,0-0.7c0-0.3,0.1-0.7,0.2-1c0.1-0.4,0.2-0.8,0.3-1.2c0.1-0.4,0.2-0.8,0.4-1.2s0.2-0.7,0.3-1
		C101.7,12.7,101.7,12.5,101.8,12.4z M103.3,9c0.1,0,0.3,0,0.5,0c0.2,0.1,0.4,0.2,0.6,0.3c0.2,0.1,0.3,0.2,0.4,0.4
		c0.1,0.1,0.1,0.2,0,0.3c-0.1,0.1-0.2,0.2-0.3,0.3c-0.1,0.1-0.2,0.2-0.4,0.4c-0.1,0.1-0.2,0.3-0.3,0.5c-0.1,0.2-0.2,0.4-0.3,0.6
		c0,0.1-0.1,0.1-0.2,0.1s-0.2-0.1-0.3-0.1c-0.1-0.1-0.2-0.2-0.3-0.3s-0.2-0.2-0.2-0.2c0-0.1,0-0.2,0-0.5c0.1-0.2,0.1-0.5,0.2-0.7
		c0.1-0.3,0.2-0.5,0.3-0.7C103.2,9.2,103.3,9,103.3,9z"/>
	<path class="st1" d="M117.2,5.5c0.2,0,0.3,0.1,0.4,0.2c0.1,0.1,0.2,0.2,0.2,0.4c0,0.1,0,0.3,0,0.4s0,0.2-0.1,0.3
		c-0.1,0.3-0.3,0.6-0.5,0.9c-0.2,0.3-0.3,0.6-0.4,0.9c-0.2,0.5-0.3,1-0.5,1.6c-0.1,0.6-0.3,1.2-0.4,1.8s-0.3,1.3-0.5,1.9
		c-0.2,0.6-0.4,1.3-0.7,1.9c-0.3,0.6-0.6,1.2-0.9,1.7s-0.7,1-1.2,1.4c-0.5,0.4-1,0.7-1.6,1c-0.6,0.2-1.3,0.4-2.1,0.4
		c-0.1,0-0.2,0-0.4,0s-0.3-0.1-0.5-0.1c-0.2-0.1-0.4-0.2-0.6-0.3c-0.2-0.1-0.4-0.3-0.5-0.5c-0.2-0.2-0.3-0.5-0.4-0.8
		c-0.1-0.3-0.1-0.7-0.1-1.1c0-0.1,0-0.3,0.1-0.5c0.1-0.2,0.2-0.5,0.3-0.7c0.1-0.3,0.3-0.5,0.5-0.7c0.2-0.2,0.5-0.3,0.8-0.4
		c0.1,0,0.2,0,0.3,0s0.3,0.1,0.5,0.1s0.3,0.2,0.5,0.3c0.1,0.1,0.3,0.3,0.3,0.5c0.1,0.1,0.1,0.2,0,0.3c0,0.1-0.1,0.1-0.2,0.1
		c-0.1,0-0.2,0.1-0.3,0.2c-0.1,0.1-0.2,0.2-0.3,0.4c-0.1,0.1-0.2,0.3-0.2,0.5c-0.1,0.2-0.1,0.3-0.1,0.4c0,0.2,0.1,0.4,0.1,0.5
		c0.1,0.1,0.2,0.2,0.3,0.3s0.2,0.1,0.4,0.1c0.1,0,0.3,0,0.4,0c0.5-0.1,0.9-0.4,1.2-0.8s0.7-0.8,1-1.4c0.3-0.5,0.6-1.2,0.8-1.8
		c0.2-0.7,0.5-1.4,0.7-2.1c0.2-0.7,0.4-1.4,0.6-2.1c0.2-0.7,0.4-1.3,0.6-1.9c0,0,0.1-0.1,0.2-0.3c0.1-0.1,0.3-0.3,0.4-0.4
		c0.2-0.1,0.3-0.3,0.4-0.4c0.1-0.1,0.2-0.2,0.2-0.2c0,0-0.2,0.1-0.4,0.3c-0.2,0.2-0.5,0.4-0.9,0.7c-0.3,0.3-0.7,0.6-1.1,1
		s-0.8,0.8-1.1,1.2s-0.6,0.8-0.8,1.3s-0.3,0.8-0.3,1.2c0,0.1,0,0.2,0,0.3c0,0.1,0.1,0.2,0.1,0.3c0.1,0.1,0.1,0.1,0.2,0.2
		c0.1,0,0.2,0,0.3,0c0.1,0,0.2,0,0.2,0.2s-0.1,0.4-0.2,0.6c-0.1,0.1-0.2,0.2-0.4,0.3c-0.2,0.1-0.4,0.1-0.6,0.2c-0.2,0-0.4,0-0.6,0
		c-0.2,0-0.4-0.1-0.6-0.3c-0.2-0.1-0.3-0.3-0.4-0.6c-0.1-0.2-0.1-0.6-0.1-0.9c0-0.4,0.1-0.8,0.4-1.2s0.5-0.8,0.8-1.3
		s0.7-0.9,1.1-1.3c0.4-0.4,0.9-0.8,1.3-1.2c0.5-0.4,0.9-0.7,1.3-1.1c0.4-0.3,0.9-0.6,1.2-0.9c0.4-0.2,0.7-0.4,1-0.6
		C117,5.5,117.1,5.5,117.2,5.5z M116.5,3.1c0.1-0.3,0.2-0.5,0.4-0.7c0.2-0.2,0.5-0.3,0.7-0.3c0.3,0,0.4,0.1,0.6,0.3
		c0.1,0.2,0.2,0.4,0.1,0.7c0,0.1-0.1,0.3-0.2,0.4c-0.1,0.1-0.2,0.2-0.3,0.3c-0.1,0.1-0.2,0.2-0.3,0.2c-0.1,0.1-0.2,0.1-0.4,0.1
		c-0.3,0-0.4-0.1-0.6-0.3C116.5,3.6,116.4,3.4,116.5,3.1z"/>
	<path class="st1" d="M118.5,11.8c0.1,0,0.3,0,0.4,0.1c0.2,0,0.3,0.1,0.4,0.2c0.1,0.1,0.2,0.2,0.3,0.4c0.1,0.2,0.1,0.4,0.1,0.7
		c0,0.1,0,0.2-0.1,0.3s-0.1,0.2-0.1,0.4c-0.1,0.1-0.1,0.3-0.2,0.4c-0.1,0.1-0.2,0.2-0.3,0.3c-0.1,0.1-0.3,0.2-0.4,0.2
		s-0.3,0-0.4-0.1c-0.1-0.1-0.2-0.1-0.2-0.3c0-0.1,0-0.2,0.1-0.3c0,0,0-0.1,0.1-0.1c0-0.1,0.1-0.1,0.1-0.2c0.1-0.1,0.1-0.2,0.1-0.2
		c0-0.1,0.1-0.1,0.1-0.2c0-0.1,0-0.2-0.2-0.2c-0.1,0-0.3,0-0.5,0.1c-0.2,0.1-0.3,0.2-0.5,0.4s-0.2,0.4-0.2,0.7
		c0,0.1,0.1,0.3,0.2,0.4c0.2,0.2,0.3,0.3,0.5,0.6c0.3-0.2,0.7-0.4,1-0.5c0.3-0.1,0.6-0.3,0.8-0.4c0.3-0.1,0.5-0.2,0.6-0.2
		c0.2,0,0.3-0.1,0.3-0.1c0.1,0,0.1,0,0.2,0c0.1,0.1,0.1,0.1,0.2,0.2c0,0.1,0.1,0.2,0.1,0.2c0,0.1,0,0.1-0.1,0.1
		c-0.1,0-0.2,0.1-0.5,0.1c-0.2,0.1-0.5,0.2-0.8,0.3c-0.3,0.1-0.7,0.3-1,0.5s-0.7,0.4-1,0.7c0.1,0,0.1-0.1,0.2-0.1
		c0.1,0,0.2-0.1,0.3-0.1s0.2-0.1,0.2-0.1c0.1,0,0.1,0,0.1-0.1c0.1,0.2,0.3,0.4,0.3,0.6s0.1,0.4,0.1,0.7c0,0.5-0.1,0.9-0.3,1.2
		c-0.1,0.3-0.3,0.6-0.5,0.8c-0.2,0.2-0.4,0.4-0.6,0.5c-0.2,0.1-0.4,0.2-0.6,0.3s-0.3,0.1-0.5,0.1s-0.2,0-0.3,0c-0.3,0-0.5,0-0.7-0.2
		c-0.2-0.1-0.3-0.3-0.4-0.4c-0.1-0.2-0.1-0.3-0.2-0.5s0-0.4,0-0.5c0.1-0.5,0.3-1,0.5-1.4c0.3-0.4,0.6-0.8,1-1.1
		c-0.1-0.1-0.2-0.2-0.3-0.3c-0.1-0.1-0.2-0.2-0.3-0.3c-0.1-0.1-0.1-0.3-0.2-0.5s0-0.4,0-0.6c0-0.5,0.1-0.9,0.4-1.2
		c0.2-0.4,0.4-0.6,0.7-0.9c0.3-0.2,0.6-0.4,0.8-0.5S118.3,11.8,118.5,11.8z M117.4,17.9c0-0.3,0-0.5,0-0.7c0-0.2-0.1-0.3-0.2-0.5
		c-0.2,0.2-0.4,0.4-0.5,0.7c-0.2,0.2-0.3,0.5-0.4,0.8c-0.1,0.3-0.1,0.5,0,0.6s0.2,0.1,0.4,0.1c0.1,0,0.3-0.2,0.5-0.3
		C117.3,18.4,117.4,18.2,117.4,17.9z"/>
	<path class="st1" d="M120.7,10.6c0.2,0,0.4,0.1,0.5,0.1c0.2,0,0.4,0.1,0.5,0.1c0.2-0.5,0.4-1,0.5-1.3c0.1-0.3,0.2-0.6,0.2-0.8
		c0-0.1,0.1-0.1,0.2-0.1c0.1,0,0.3,0.1,0.4,0.2c0.1,0.1,0.3,0.3,0.4,0.5c0.1,0.2,0.1,0.5,0,0.9c0,0.2-0.1,0.4-0.1,0.5
		c0,0.1-0.1,0.2-0.1,0.3c0.5,0,0.9,0,1.4-0.1c0.4-0.1,0.9-0.3,1.3-0.6c0.1,0,0.1-0.1,0.2-0.1c0,0,0.1,0,0.1,0.1c0,0,0,0.1,0,0.2
		c0,0.1,0,0.1-0.1,0.2c-0.2,0.4-0.5,0.7-0.8,0.8c-0.3,0.1-0.6,0.2-0.9,0.2c-0.3,0-0.6,0-1-0.1s-0.7-0.2-1-0.2c0.1,0,0.2,0.1,0.4,0.1
		c0.1,0,0.2,0.1,0.3,0.1c-0.2,0.4-0.4,0.9-0.6,1.4c-0.2,0.5-0.5,1.1-0.7,1.7c-0.1,0.2-0.1,0.4-0.2,0.7c-0.1,0.3-0.2,0.6-0.2,0.9
		c-0.1,0.3-0.1,0.6-0.2,0.8c0,0.2,0,0.4,0,0.5c0.1,0.2,0.2,0.3,0.3,0.2c0.1-0.1,0.3-0.2,0.4-0.4c0.1-0.2,0.3-0.5,0.4-0.8
		c0.1-0.3,0.3-0.6,0.4-0.8c0.1-0.3,0.2-0.5,0.3-0.7c0.1-0.2,0.2-0.3,0.2-0.3c0.1,0,0.2,0.1,0.2,0.1c0.1,0.1,0.1,0.1,0.1,0.2
		c0,0.1,0,0.1,0,0.2c0,0,0,0.1-0.1,0.3c-0.1,0.2-0.2,0.5-0.3,0.8c-0.1,0.3-0.3,0.6-0.5,1c-0.2,0.3-0.4,0.6-0.6,0.9
		c-0.2,0.3-0.5,0.5-0.8,0.6c-0.3,0.2-0.6,0.2-0.9,0.1c-0.2,0-0.3-0.1-0.4-0.2c-0.1-0.1-0.1-0.3-0.2-0.6s0-0.7,0-1.1
		c0-0.4,0.1-0.9,0.2-1.4c0.1-0.5,0.3-1,0.4-1.4l1.2-3c-0.3,0-0.5,0.1-0.8,0.2c-0.3,0.1-0.5,0.3-0.8,0.5c0,0-0.1,0.1-0.1,0.1
		c0,0-0.1,0-0.1,0c0,0,0,0-0.1,0c-0.1-0.1-0.2-0.2-0.2-0.4c0-0.2,0-0.4,0.1-0.5c0.1-0.2,0.2-0.3,0.4-0.4S120.4,10.6,120.7,10.6z"/>
	<path class="st1" d="M126.5,16.1c-0.1,0-0.2,0-0.4,0c-0.2,0-0.3,0-0.5,0c-0.2,0-0.3,0-0.5,0.1c-0.1,0-0.3,0-0.4,0
		c0.1,0,0.3,0,0.3,0.1c0.1,0,0.1,0.1,0.2,0.1c-0.5,0.6-0.8,0.9-1.1,0.9c-0.2,0-0.3,0-0.4-0.1s-0.2-0.2-0.2-0.3c0-0.1,0-0.2,0-0.3
		c0-0.1,0.1-0.2,0.1-0.3v0c-0.1,0.1-0.2,0.2-0.2,0.3s0,0.2,0,0.3c0,0.1,0,0.2,0,0.2c0,0.1,0,0.1,0.1,0.1c0,0.1,0,0.1,0,0.1
		c0,0,0,0.1,0,0.1c0,0,0,0.1,0,0.1c0,0.1,0,0.1,0.1,0.2c0,0,0.1,0.1,0.1,0.1c0.1,0,0.2,0.1,0.3,0.1c0.1,0,0.2,0,0.4-0.1
		c0.2-0.1,0.4-0.2,0.6-0.4c0.2-0.2,0.4-0.3,0.6-0.5c0.2-0.2,0.4-0.4,0.6-0.6s0.4-0.4,0.5-0.6c0.1-0.2,0.2-0.4,0.3-0.5
		c0.1-0.1,0.1-0.2,0.2-0.2s0.2,0,0.2,0.1c0.1,0.1,0.1,0.2,0.1,0.3c0,0.1,0,0.3-0.1,0.5c0,0.1-0.1,0.2-0.2,0.4
		c-0.1,0.2-0.2,0.4-0.4,0.6c-0.2,0.2-0.4,0.5-0.6,0.7c-0.2,0.3-0.5,0.5-0.7,0.7s-0.6,0.4-0.9,0.6s-0.6,0.3-0.9,0.3
		c-0.1,0-0.2,0-0.3,0c-0.1,0-0.3-0.1-0.4-0.2c-0.2-0.1-0.3-0.2-0.5-0.4c-0.2-0.2-0.3-0.4-0.5-0.7c-0.1-0.2-0.1-0.4-0.1-0.8
		c0-0.4,0.1-0.8,0.2-1.2c0.1-0.5,0.3-0.9,0.5-1.4c0.2-0.5,0.5-0.9,0.8-1.2s0.6-0.6,1-0.8s0.8-0.2,1.2-0.1c0.3,0.1,0.5,0.2,0.6,0.3
		c0.1,0.1,0.2,0.3,0.3,0.4s0.1,0.3,0,0.5s0,0.3,0,0.4c0,0.3-0.1,0.5-0.2,0.8c-0.1,0.3-0.2,0.5-0.4,0.8c0.1,0,0.2,0.1,0.3,0.1
		c0.1,0,0.1,0.1,0.1,0.2c0,0.1,0.1,0.1,0.1,0.2c0,0.1,0,0.1,0,0.2C126.6,16.1,126.6,16.1,126.5,16.1z M124.1,15.8
		c0.1-0.1,0.3-0.2,0.5-0.3c0.2-0.1,0.4-0.1,0.6-0.2c0.1-0.2,0.2-0.4,0.3-0.7c0.1-0.2,0.2-0.5,0.3-0.7s0.1-0.4,0.1-0.5
		c0-0.1,0-0.2-0.1-0.2c-0.1,0-0.2,0.1-0.4,0.2c-0.1,0.1-0.3,0.3-0.4,0.6c-0.1,0.2-0.3,0.5-0.4,0.8C124.4,15.2,124.2,15.5,124.1,15.8
		z M124.5,16.5C124.5,16.5,124.5,16.4,124.5,16.5c0.1-0.1,0.1-0.1,0.1-0.2c-0.1,0-0.1,0-0.1,0C124.4,16.4,124.4,16.4,124.5,16.5
		C124.5,16.4,124.5,16.5,124.5,16.5z"/>
</g>
</svg>
